<svg width="72" height="72" viewBox="0 0 72 72" fill="none" xmlns="http://www.w3.org/2000/svg">
<path d="M9 9C9 5.68629 11.6863 3 15 3H45L63 21V63C63 66.3137 60.3137 69 57 69H15C11.6863 69 9 66.3137 9 63V9Z" fill="url(#paint0_linear_404_42911)"/>
<rect x="15" y="39" width="12" height="24" rx="3" fill="url(#paint1_linear_404_42911)"/>
<rect x="45" y="30" width="12" height="33" rx="3" fill="url(#paint2_linear_404_42911)"/>
<rect x="30" y="48" width="12" height="15" rx="3" fill="url(#paint3_linear_404_42911)"/>
<path d="M63 21L45 3V15C45 18.3137 47.6863 21 51 21H63Z" fill="#9CE1FF"/>
<defs>
<linearGradient id="paint0_linear_404_42911" x1="63" y1="24.5769" x2="13.2141" y2="25.4687" gradientUnits="userSpaceOnUse">
<stop stop-color="#28AFEA"/>
<stop offset="1" stop-color="#5DBCF3"/>
</linearGradient>
<linearGradient id="paint1_linear_404_42911" x1="22.2" y1="65.1818" x2="4.69566" y2="38.4711" gradientUnits="userSpaceOnUse">
<stop stop-color="#0C59A4"/>
<stop offset="1" stop-color="#1493DF"/>
</linearGradient>
<linearGradient id="paint2_linear_404_42911" x1="52.2" y1="66" x2="26.0918" y2="37.0256" gradientUnits="userSpaceOnUse">
<stop stop-color="#0C59A4"/>
<stop offset="1" stop-color="#1493DF"/>
</linearGradient>
<linearGradient id="paint3_linear_404_42911" x1="37.2" y1="64.3636" x2="28.83" y2="43.9282" gradientUnits="userSpaceOnUse">
<stop stop-color="#0C59A4"/>
<stop offset="1" stop-color="#1493DF"/>
</linearGradient>
</defs>
</svg>
